<?xml version="1.0" encoding="UTF-8"?>
<svg width="2167" height="1181" viewBox="0 0 2167 1181" fill="none" xmlns="http://www.w3.org/2000/svg">
<path d="M296.633 614.55C296.303 640.4 283.743 675.71 275.053 679.22C275.053 679.22 251.313 698.5 247.403 692.84C244.433 688.5 254.913 650.84 253.653 651.36C253.793 651.3 250.473 655.28 243.683 663.28C236.903 671.29 229.303 677 220.903 680.4C202.273 687.95 185.343 687.84 170.113 680.08C155.893 672.91 145.783 660.81 139.783 643.77C133.293 625.37 133.603 607.84 140.693 591.18C148.373 573.44 162.363 560.45 182.673 552.22C194.443 547.46 206.593 545.94 219.133 547.68C231.673 549.43 238.013 550.26 238.163 550.21C241.243 548.96 242.123 546.47 240.813 542.74C235.293 527.07 131.793 471.08 95.2235 571.88C85.1635 600.11 85.0435 628.16 94.8535 656.01C104.983 684.74 122.273 705.86 146.743 719.4C173.953 734.38 203.183 735.54 234.433 722.88C238.213 721.35 240.483 721.64 241.223 723.75L271.883 739.12C272.803 741.73 248.203 749.7 244.423 751.23C146.553 787.04 73.6735 713.45 62.0735 669.29C9.11348 439.51 203.663 466.01 241.283 488.2C264.323 517.69 296.943 592.27 296.633 614.56V614.55ZM251.433 599.48C248.773 590.07 214.173 571.86 203.813 576.05C193.023 580.42 185.243 587.3 180.473 596.7C175.693 606.09 175.003 615.58 178.373 625.15C181.613 634.35 186.853 641.26 194.083 645.85C202.403 651.3 211.383 651.77 221.283 648.06C241.713 631.18 254.653 610.79 251.443 599.48H251.433Z" fill="#ba893a"/>
<path d="M479.313 800.26C455.403 804.28 434.223 802.78 415.773 795.77C397.323 788.77 382.103 776.92 370.123 760.27C358.133 743.61 350.064 722.88 345.894 698.05L307.513 509.47L384.003 523.96L419.803 673.95C423.673 696.95 432.063 713.51 444.963 723.63C457.873 733.76 474.313 737.13 494.283 733.77C509.103 731.28 521.223 726.05 530.623 718.09C540.023 710.13 546.603 699.76 550.363 686.99C554.123 674.22 554.694 659.97 552.044 644.23L578.773 653.27C580.223 680.42 576.943 704.39 568.923 725.18C560.903 745.98 549.184 762.81 533.764 775.67C518.344 788.53 500.193 796.72 479.313 800.24V800.26ZM601.183 777.98L557.963 682.5L515.243 520.46L592.273 515.46L635.683 681.09L676.413 765.08L601.183 777.98Z" fill="#ba893a"/>
<path d="M908.393 639.7C907.443 660.36 901.963 677.65 891.993 691.61C882.013 705.57 867.683 715.42 849.023 721.18C830.353 726.94 807.803 728.49 781.373 725.81C754.153 723.05 730.673 716.34 710.933 705.66C691.183 694.99 676.054 681.13 665.534 664.08C655.014 647.03 649.853 627.97 650.043 606.9L716.763 613.66C717.893 623.3 721.443 631.91 727.403 639.48C733.363 647.06 741.293 653.22 751.193 657.96C761.093 662.71 818.823 667.71 828.633 663.25C838.433 658.8 843.584 651.16 844.094 640.33C844.454 632.54 841.394 626.28 834.904 621.54C828.424 616.8 816.323 612.52 798.623 608.68L757.203 600.4C732.463 595.18 712.963 587.76 698.693 578.15C684.413 568.54 674.483 557.25 668.913 544.27C663.333 531.29 660.893 517.36 661.583 502.46C662.543 481.82 668.303 465.06 678.893 452.18C689.473 439.31 713.613 421.36 731.863 416.06C750.113 410.77 771.013 409.31 794.563 411.7C818.633 414.14 839.094 423.03 858.344 430.92C889.944 443.86 930.464 472.12 930.464 472.12L880.513 517.61C846.453 470.95 774.533 456.88 740.603 481.64C740.603 481.64 726.693 492.56 726.233 502.38C725.923 509.15 728.413 514.93 733.713 519.72C739.013 524.51 817.823 542.78 817.823 542.78C841.773 547.93 860.503 555.01 874.023 564.03C887.533 573.05 896.823 583.94 901.893 596.7C906.953 609.45 909.113 623.79 908.383 639.7H908.393Z" fill="#ba893a"/>
<path d="M1158.21 633.11C1157.83 660.81 1153.51 685.62 1145.26 707.52C1137 729.43 1125.23 747.16 1109.93 760.69C1094.63 774.22 1076.52 782.48 1055.61 785.45C1033.91 788.53 1013.9 785.61 995.593 776.68C977.273 767.76 962.043 753.79 949.913 734.78C937.773 715.77 929.833 692.86 926.063 666.05C922.253 638.94 923.563 614.56 929.993 592.92C936.413 571.27 947.203 553.61 962.353 539.94C977.493 526.27 995.913 517.9 1017.61 514.82C1038.52 511.85 1058.19 514.75 1076.62 523.49C1095.05 532.24 1111.31 545.99 1125.41 564.73C1139.5 583.46 1150.44 606.26 1158.2 633.11H1158.21ZM992.333 656.64C994.453 671.7 998.983 684.58 1005.95 695.25C1012.91 705.94 1021.56 713.85 1031.88 718.99C1042.2 724.14 1053.5 725.83 1065.79 724.09C1078.08 722.34 1089.19 717.47 1099.13 709.45C1109.07 701.44 1117.42 691.12 1124.18 678.48C1130.93 665.85 1135.61 651.67 1138.2 635.94C1131.38 621.55 1122.97 609.15 1112.98 598.74C1102.98 588.34 1092.1 580.66 1080.35 575.72C1068.59 570.79 1056.57 569.18 1044.28 570.93C1031.99 572.68 1021.6 577.46 1013.1 585.26C1004.6 593.08 998.483 603.16 994.753 615.51C991.023 627.87 990.213 641.58 992.323 656.64H992.333ZM1160.92 771.85L1136.37 671.23L1142.14 635.39L1126.8 603.01L1122.9 506.79L1190.73 497.17L1195.87 627.77L1241.91 760.67L1160.93 771.86L1160.92 771.85Z" fill="#ba893a"/>
<path d="M1338.58 639.2C1318.55 640.73 1300.26 637.1 1283.74 628.31C1267.21 619.51 1253.76 606.36 1243.39 588.86C1233.03 571.36 1222.74 538.69 1221.09 514.42C1219.44 490.15 1222.56 468.65 1230.46 449.9C1238.36 431.16 1249.89 416.09 1265.04 404.71C1280.19 393.34 1291.62 391.82 1311.69 392.37C1348.39 393.38 1351.38 397.71 1364.31 402.36C1377.25 407.02 1389.03 413.5 1399.67 421.84C1410.3 430.17 1419.41 439.47 1426.99 449.71C1434.57 459.96 1440.56 470.32 1444.97 480.81C1449.38 491.3 1451.89 500.94 1452.48 509.74C1453.25 520.96 1451.25 533.78 1446.49 548.16C1441.74 562.55 1434.45 576.38 1424.65 589.63C1414.85 602.88 1402.73 614.1 1388.33 623.28C1373.91 632.46 1357.33 637.77 1338.56 639.21L1338.58 639.2ZM1434.34 591.16L1431.27 546.12L1432.9 536.39L1429.06 479.97L1426.12 470.59L1428.67 394.71L1493.8 380L1497.51 581.3C1499.74 614.06 1495.59 642.13 1485.07 665.5C1474.55 688.87 1459.04 707.13 1438.52 720.29C1418 733.45 1393.67 741.1 1365.53 743.26C1345.75 744.77 1327.35 743.13 1310.33 738.34C1293.3 733.54 1276.39 725.54 1259.56 714.32L1238.15 642.81C1254.59 655.89 1288.79 676.71 1306.07 681.49C1323.34 686.27 1340.6 688 1357.85 686.68C1384.48 684.64 1404.38 675.64 1417.57 659.69C1430.76 643.74 1436.34 620.9 1434.32 591.17L1434.34 591.16ZM1355.85 583.91C1372.33 582.65 1386.87 576.13 1399.45 564.33C1412.03 552.54 1422.59 534.59 1431.15 510.45C1419.4 487.57 1406.43 471.26 1392.26 461.52C1378.09 451.78 1362.88 447.53 1346.66 448.77C1333.73 449.76 1322.82 453.42 1313.96 459.74C1305.08 466.06 1298.52 474.49 1294.27 485.03C1290.02 495.57 1288.35 507.66 1289.29 521.32C1290.19 534.67 1293.4 546.24 1298.91 556.03C1304.42 565.83 1312.05 573.17 1321.82 578.06C1331.58 582.96 1342.93 584.9 1355.86 583.92L1355.85 583.91Z" fill="#ba893a"/>
<path d="M1563.94 542.24C1551.48 543.49 1541 541.34 1532.47 535.79C1523.95 530.24 1519.16 522.21 1518.11 511.69C1517.03 500.91 1520.12 491.95 1527.37 484.82C1534.63 477.7 1544.48 473.51 1556.93 472.26C1569.66 470.99 1580.22 473.14 1588.61 478.7C1596.99 484.26 1601.73 492.44 1602.81 503.23C1603.86 513.75 1600.82 522.57 1593.71 529.67C1586.59 536.79 1576.66 540.98 1563.93 542.25L1563.94 542.24ZM1531.87 569.55L1566.98 572.58L1601.21 562.62L1624.49 795.24L1555.14 802.18L1531.86 569.56L1531.87 569.55Z" fill="#ba893a"/>
<path d="M1675.55 489.79L1706.49 498.2L1738.7 494.43L1722.57 714.08L1659.42 709.44L1675.55 489.79ZM1708.59 469.56C1697.25 468.72 1688.2 465.05 1681.46 458.54C1674.71 452.03 1671.71 443.81 1672.44 433.88C1673.19 423.69 1677.37 415.87 1685 410.42C1692.62 404.96 1702.1 402.65 1713.45 403.48C1725.04 404.33 1734.15 408.01 1740.77 414.51C1747.39 421.02 1750.32 429.36 1749.57 439.54C1748.84 449.47 1744.72 457.17 1737.23 462.64C1729.73 468.11 1720.18 470.41 1708.59 469.56Z" fill="#ba893a"/>
<path d="M1729.94 740.61L1973.57 743.83L1973.12 777.52L1729.49 774.31L1729.94 740.62V740.61Z" fill="#ba893a"/>
<path d="M1828.85 725.72L1940 609.6L1936.31 636.58L1854.61 489.86L1927.47 498.77L1985.41 600.55L1962.81 597.78L2043.96 513.02L2115.65 521.79L1997.72 645.41L1998.76 611.03L2112.2 785.27L2032.41 787.81L1953.81 651.99L1977.58 654.89L1906.99 728.64L1828.86 725.71L1828.85 725.72Z" fill="#ba893a"/>
</svg>
