<?xml version="1.0" encoding="UTF-8"?>
<svg width="143" height="172" viewBox="0 0 143 172" fill="none" xmlns="http://www.w3.org/2000/svg">
<path d="M56.16 148.12L48.2 140.21L34.46 123.75C24.05 122.49 19.84 115.53 20.04 104.54L31.09 64.45C19.34 50.44 19 29.21 21.9 6.44004C21.9 6.44004 24.8 38.37 47.33 46.17C69.86 53.97 65.4 34.46 65.4 34.46L66.15 4.79004C71.43 38.11 102.44 62.42 103.19 60.62C103.94 58.82 120.99 84.66 127.78 101.72C124.97 117.99 117.3 125.73 104.78 124.92C89.43 137.41 71.16 154.04 56.17 148.11L56.16 148.12Z" fill="white"/>
<path d="M32.6001 66.89C20.4101 50.8 16.4001 28.81 22.0201 9.32996C23.3301 24 32.5301 37.74 45.6001 44.53" stroke="#7F0003" stroke-width="1.9" stroke-miterlimit="10"/>
<path d="M75.98 60.77C65.44 44.27 62.07 23.36 65.99 4.79004C71.11 27.29 85.45 47.55 103.87 61.42V64.46" stroke="#7F0003" stroke-width="1.9" stroke-miterlimit="10"/>
<path d="M43.3099 98.84C42.5099 96.85 41.8099 95.67 38.8299 95.67C38.4399 95.67 37.9999 95.69 37.5199 95.73C38.3099 91.76 38.2499 91.42 36.4299 89.8C36.1899 89.59 35.9199 89.34 35.6099 89.05C38.2499 87.6 39.3799 86.78 38.2599 83.47H38.2999C42.3899 83.47 47.9499 88.44 50.9899 91.19C52.0499 93.59 50.8599 97.42 50.1799 98.01C48.9899 97.15 47.9099 96.73 46.8799 96.73C45.5499 96.73 44.3799 97.43 43.3099 98.85V98.84Z" fill="#DBFF6A"/>
<path d="M39.0399 84.09C42.8199 84.64 47.8699 89.14 50.5099 91.52C51.2399 93.35 50.5899 96.13 50.0299 97.21C48.9199 96.5 47.8899 96.15 46.8799 96.15C45.6399 96.15 44.4899 96.69 43.4699 97.77C42.7099 96.16 41.6899 95.1 38.8299 95.1C38.6399 95.1 38.4299 95.1 38.2199 95.11C38.8599 91.75 38.7399 91.09 36.8099 89.37C36.7299 89.3 36.6499 89.23 36.5699 89.15C38.7499 87.87 39.7399 86.78 39.0499 84.09M38.2999 82.9C38.0199 82.9 37.7399 82.92 37.4699 82.97C38.9299 86.7 37.9399 87.12 34.6599 88.92C37.7099 91.97 37.9499 90.69 36.8099 96.37C37.5999 96.29 38.2699 96.24 38.8299 96.24C41.8699 96.24 42.1399 97.46 43.1799 100.06C44.2899 98.2 45.4999 97.29 46.8799 97.29C47.8199 97.29 48.8399 97.71 49.9599 98.55C50.0199 98.6 50.0899 98.62 50.1599 98.62C51.1999 98.62 52.8299 93.72 51.4599 90.84C48.1299 87.84 42.5599 82.9 38.2999 82.9Z" fill="#947900"/>
<path d="M82.4201 99.8001C82.1601 99.3901 81.9401 99.0201 81.7401 98.6901C80.5201 96.7001 80.0201 95.8801 78.2401 95.8801C77.6401 95.8801 76.8901 95.9701 75.8701 96.1001C76.8601 92.5801 76.2701 91.5901 74.6101 89.5501C74.4401 89.3401 74.2501 89.1101 74.0601 88.8601C76.1101 87.8601 77.7301 87.0701 78.0701 85.6601C78.2101 85.0901 78.1101 84.4801 77.7701 83.8101C80.9501 83.8501 86.5801 86.3801 93.6401 90.9401C93.2101 91.2301 92.5401 91.8101 91.5601 93.1001C90.5501 94.4301 90.7501 96.7901 90.8901 98.3501C90.8901 98.4101 90.9001 98.4701 90.9101 98.5301C89.9501 97.9901 88.9201 97.7201 87.8501 97.7201C86.1201 97.7201 84.3001 98.4201 82.4201 99.7901V99.8001Z" fill="#DBFF6A"/>
<path d="M78.6099 84.46C81.6899 84.87 86.6 87.15 92.67 91.01C92.25 91.39 91.7399 91.94 91.1099 92.77C90.1399 94.05 90.1499 96.03 90.2599 97.61C89.4899 97.31 88.6799 97.17 87.8499 97.17C86.1499 97.17 84.3899 97.78 82.5899 99C82.4599 98.79 82.3399 98.59 82.2299 98.41C80.9699 96.36 80.3399 95.33 78.2399 95.33C77.7899 95.33 77.2699 95.38 76.6299 95.45C77.3799 92.26 76.6399 91.17 75.0499 89.21C75.0199 89.17 74.9799 89.13 74.9499 89.08C76.7699 88.18 78.2599 87.31 78.6299 85.81C78.7399 85.37 78.7299 84.93 78.6299 84.46M77.6899 83.25C77.3699 83.25 77.0699 83.27 76.7799 83.32C78.8999 86.13 76.3599 87.1 73.1799 88.66C75.5099 91.75 76.6199 91.87 75.0799 96.78C76.5499 96.6 77.5299 96.46 78.2399 96.46C80.0499 96.46 80.1599 97.35 82.2799 100.63C84.1599 99.14 86.0499 98.3 87.8599 98.3C89.0899 98.3 90.2699 98.69 91.3799 99.52C91.3999 99.54 91.4199 99.55 91.4399 99.55C91.8299 99.55 90.6899 95.2 92.0199 93.46C94.5399 90.15 94.7299 91.92 94.0799 90.56C89.9699 87.9 82.2199 83.25 77.6799 83.25H77.6899Z" fill="#947900"/>
<path d="M66.03 89.48C66.03 89.48 70.59 75.2 94.45 90.69" stroke="#7F0003" stroke-width="1.52" stroke-miterlimit="10" stroke-linecap="square"/>
<path d="M29.6599 87.92C29.6599 87.92 31.8499 75.06 51.1699 90.69" stroke="#7F0003" stroke-width="1.52" stroke-miterlimit="10" stroke-linecap="square"/>
<path d="M118.16 93.46C134.33 86.89 129.75 126.81 104.62 124.93" stroke="#7F0003" stroke-width="1.9" stroke-miterlimit="10" stroke-linecap="square"/>
<path d="M44.6701 94.01C44.2301 94.01 43.8501 93.71 43.7501 93.28L43.0401 90.14C42.9801 89.9 43.0301 89.64 43.1601 89.43C43.2901 89.22 43.5001 89.07 43.7501 89.02L44.7801 88.79C44.7801 88.79 44.9501 88.77 44.9901 88.77C45.4301 88.77 45.8101 89.07 45.9101 89.5L46.6201 92.64C46.7301 93.14 46.4201 93.65 45.9101 93.76L44.8801 93.99C44.8801 93.99 44.7101 94.01 44.6701 94.01Z" fill="white"/>
<path d="M44.99 89.34C45.16 89.34 45.31 89.46 45.35 89.63L46.06 92.77C46.1 92.97 45.98 93.17 45.78 93.21L44.75 93.44C44.75 93.44 44.7 93.44 44.67 93.44C44.5 93.44 44.35 93.3199 44.31 93.1499L43.6 90.0099C43.56 89.8099 43.68 89.61 43.88 89.57L44.91 89.34C44.91 89.34 44.96 89.34 44.99 89.34ZM44.99 88.2C44.88 88.2 44.77 88.21 44.66 88.24L43.63 88.47C42.82 88.65 42.31 89.46 42.49 90.27L43.2 93.41C43.36 94.1 43.96 94.59 44.67 94.59C44.78 94.59 44.89 94.58 45 94.55L46.03 94.32C46.84 94.14 47.35 93.33 47.17 92.52L46.46 89.38C46.3 88.69 45.7 88.2 44.99 88.2Z" fill="#7F0003"/>
<path d="M83.8801 94.2C83.4401 94.2 83.06 93.9 82.96 93.47L82.25 90.33C82.19 90.09 82.24 89.8299 82.37 89.6199C82.5 89.4099 82.71 89.26 82.96 89.21L83.99 88.9799C83.99 88.9799 84.1601 88.96 84.2001 88.96C84.6401 88.96 85.02 89.26 85.12 89.69L85.83 92.83C85.89 93.07 85.84 93.3299 85.71 93.5399C85.58 93.7499 85.37 93.9 85.12 93.95L84.09 94.1799C84.09 94.1799 83.9301 94.2 83.8801 94.2Z" fill="white"/>
<path d="M84.2 89.53C84.37 89.53 84.5199 89.65 84.5599 89.82L85.2699 92.96C85.3099 93.16 85.1899 93.36 84.9899 93.4L83.9599 93.63C83.9599 93.63 83.9099 93.63 83.8799 93.63C83.7099 93.63 83.5599 93.51 83.5199 93.34L82.8099 90.2C82.7699 90 82.8899 89.8 83.0899 89.76L84.1199 89.53C84.1199 89.53 84.17 89.53 84.2 89.53ZM84.2 88.39C84.09 88.39 83.9799 88.4 83.8699 88.43L82.8399 88.66C82.0299 88.84 81.52 89.65 81.7 90.46L82.4099 93.6C82.5699 94.29 83.1699 94.78 83.8799 94.78C83.9899 94.78 84.0999 94.77 84.2099 94.74L85.2399 94.51C86.0499 94.33 86.5599 93.52 86.3799 92.71L85.67 89.57C85.51 88.88 84.91 88.39 84.2 88.39Z" fill="#7F0003"/>
<path d="M68 98.0701C68 98.0701 78.44 102.44 86.22 101.62C88.1 101.42 93.45 98.8001 93.45 98.8001" stroke="#7F0003" stroke-width="1.14" stroke-linecap="round" stroke-linejoin="round"/>
<path d="M30.9399 96.6899C32.5199 98.0799 33.3799 99.4599 35.6299 100.75C40.4799 101.11 46.6599 100.44 50.9099 98.0799" stroke="#7F0003" stroke-width="1.14" stroke-linecap="round" stroke-linejoin="round"/>
<path d="M49.29 109.79L52.37 114.22" stroke="#7F0003" stroke-width="1.14" stroke-linecap="square" stroke-linejoin="round"/>
<path d="M22.2701 48.92C13.4101 56 6.47011 65.45 2.36011 76.01C7.13011 73.7 11.9001 71.39 16.6601 69.07C12.6701 76.6 11.6201 85.64 13.7801 93.89C15.9401 102.14 21.2901 109.5 28.6101 113.49L27.1401 107.4C28.6801 108.38 28.8101 108.62 30.3201 109.18C29.1101 104.17 31.8001 96.9 31.8001 93.99C28.5701 85.22 28.5501 74.73 31.8901 66.5C28.7001 60.53 25.5101 54.56 22.4801 48.5C22.4601 48.45 22.4301 48.4 22.2601 48.9L22.2701 48.92Z" fill="#E84E1B" stroke="#7F0003" stroke-width="1.9" stroke-miterlimit="10"/>
<path d="M96.88 131.59C96.12 141.35 94.3 150.53 86.21 156.03C93.86 157.11 96.42 155.76 101.88 151.42C102.7 155.64 103.82 162.93 104.65 167.15C108.98 161.46 112.47 148.38 111.66 141.27C115.86 143.55 119.67 149.14 123.87 151.42C119.38 143.56 117.44 130.91 121.16 118.56C118.2 123.18 109.79 125.53 104.63 124.93L96.89 131.59H96.88Z" fill="#E84E1B" stroke="#7F0003" stroke-width="1.9" stroke-miterlimit="10"/>
<g opacity="0.97">
<path d="M36.7399 128.23C33.8799 135.98 27.9499 141.84 19.8899 143.68C24.2599 146.49 29.7699 147.49 34.8499 146.39C31.7499 155.12 37.3499 164.3 44.8399 169.9C44.4199 166.11 45.2599 157.53 44.8399 153.73C51.0099 159.9 52.9999 161.26 59.3099 163.16C55.7799 159.25 55.1799 152.98 56.0099 148.12" fill="#FFF7D4"/>
<path d="M36.7399 128.23C33.8799 135.98 27.9499 141.84 19.8899 143.68C24.2599 146.49 29.7699 147.49 34.8499 146.39C31.7499 155.12 37.3499 164.3 44.8399 169.9C44.4199 166.11 45.2599 157.53 44.8399 153.73C51.0099 159.9 52.9999 161.26 59.3099 163.16C55.7799 159.25 55.1799 152.98 56.0099 148.12" stroke="#7F0003" stroke-width="1.9" stroke-miterlimit="10"/>
</g>
<path d="M35.2501 123.81C26.2101 123.59 18.4001 114.54 19.5101 105.57" stroke="#7F0003" stroke-width="1.9" stroke-miterlimit="10"/>
<path d="M37.98 39.4101C46.26 35.0001 55.85 33.0901 65.18 33.9701" stroke="#7F0003" stroke-width="1.9" stroke-miterlimit="10"/>
<path d="M79.1201 34.47C100.52 34.47 110.69 41.26 123.49 55.53C132.19 65.23 133.21 94.62 119.04 107.26" stroke="#7F0003" stroke-width="1.9" stroke-miterlimit="10"/>
<path d="M93.2 35.67C122.41 43.79 137.17 60.99 141.04 83.64C138.49 81.23 135.94 78.83 133.39 76.42C135.74 86.25 133.37 96.21 127.45 104.4" fill="#E84E1B"/>
<path d="M93.2 35.67C122.41 43.79 137.17 60.99 141.04 83.64C138.49 81.23 135.94 78.83 133.39 76.42C135.74 86.25 133.37 96.21 127.45 104.4" stroke="#7F0003" stroke-width="1.9" stroke-miterlimit="10"/>
<path d="M68.26 103.65L66.29 105.46" stroke="#BF8600" stroke-width="1.14" stroke-linecap="square" stroke-linejoin="round"/>
<path d="M74.09 104.7L73.71 107.93" stroke="#BF8600" stroke-width="1.14" stroke-linecap="square" stroke-linejoin="round"/>
<path d="M32.7299 102.99L30.9099 104.7" stroke="#BF8600" stroke-width="1.14" stroke-linecap="square" stroke-linejoin="round"/>
<path d="M36.59 104.95L36.2 107.11" stroke="#BF8600" stroke-width="1.14" stroke-linecap="square" stroke-linejoin="round"/>
<path d="M64.6001 87.4299C66.3601 84.4099 69.6901 82.3799 73.1801 82.1899" stroke="#BF8600" stroke-width="1.14" stroke-linecap="square" stroke-linejoin="round"/>
<path d="M42.3601 82.64C52.0401 84.33 52.2701 89.16 52.2701 89.16" stroke="#BF8600" stroke-width="1.14" stroke-linecap="square" stroke-linejoin="round"/>
<path d="M30.4901 85.61L28.0801 84.26" stroke="#7F0003" stroke-width="1.14" stroke-linecap="square" stroke-linejoin="round"/>
<path d="M36.74 82.6401L34.98 80.4301" stroke="#7F0003" stroke-width="1.14" stroke-linecap="square" stroke-linejoin="round"/>
<path d="M46.24 86.0501L46.94 84.6801" stroke="#7F0003" stroke-width="1.14" stroke-linecap="square" stroke-linejoin="round"/>
<path d="M35.64 58.86C28.97 68.06 28.13 83.62 31.98 94.51C29.13 113.09 31.38 127.27 48.05 140.21C50.34 145.6 55.53 149.64 61.47 149.94C78.04 145.87 93.31 136.67 104.65 123.93" stroke="#7F0003" stroke-width="1.9" stroke-miterlimit="10"/>
<path d="M68.5299 85.27L65.4099 83.33" stroke="#7F0003" stroke-width="1.14" stroke-linecap="square" stroke-linejoin="round"/>
<path d="M75.28 82.89L74.78 79.99" stroke="#7F0003" stroke-width="1.14" stroke-linecap="square" stroke-linejoin="round"/>
<path d="M84.8901 85.08L86.2901 83.24" stroke="#7F0003" stroke-width="1.14" stroke-linecap="square" stroke-linejoin="round"/>
<path d="M47.5599 44.22C44.8399 49.26 42.1299 54.31 39.4099 59.35C42.2799 58.01 45.1499 56.66 48.0199 55.32C44.2699 63.13 49.2899 73.78 57.6999 75.86C57.6399 72.03 57.5699 68.19 57.5099 64.36C63.4299 71.06 73.2299 74.05 81.8699 71.8C76.7899 68.46 73.3599 62.74 72.7899 56.69" stroke="#7F0003" stroke-width="1.9" stroke-miterlimit="10"/>
<path d="M103.03 60.62C108.24 82.28 99.79 106.62 82.28 120.4C91.78 119.67 100.94 115.27 107.46 108.33C106.49 112.94 105.51 117.55 104.54 122.16C109.62 116.9 114.69 111.64 119.77 106.38" stroke="#7F0003" stroke-width="1.9" stroke-miterlimit="10"/>
<path d="M44.6701 94.01C44.2301 94.01 43.8501 93.71 43.7501 93.28L43.0401 90.14C42.9801 89.9 43.0301 89.64 43.1601 89.43C43.2901 89.22 43.5001 89.07 43.7501 89.02L44.7801 88.79C44.7801 88.79 44.9501 88.77 44.9901 88.77C45.4301 88.77 45.8101 89.07 45.9101 89.5L46.6201 92.64C46.7301 93.14 46.4201 93.65 45.9101 93.76L44.8801 93.99C44.8801 93.99 44.7101 94.01 44.6701 94.01Z" fill="white"/>
<path d="M44.99 89.34C45.16 89.34 45.31 89.46 45.35 89.63L46.06 92.77C46.1 92.97 45.98 93.17 45.78 93.21L44.75 93.44C44.75 93.44 44.7 93.44 44.67 93.44C44.5 93.44 44.35 93.3199 44.31 93.1499L43.6 90.0099C43.56 89.8099 43.68 89.61 43.88 89.57L44.91 89.34C44.91 89.34 44.96 89.34 44.99 89.34ZM44.99 88.2C44.88 88.2 44.77 88.21 44.66 88.24L43.63 88.47C42.82 88.65 42.31 89.46 42.49 90.27L43.2 93.41C43.36 94.1 43.96 94.59 44.67 94.59C44.78 94.59 44.89 94.58 45 94.55L46.03 94.32C46.84 94.14 47.35 93.33 47.17 92.52L46.46 89.38C46.3 88.69 45.7 88.2 44.99 88.2Z" fill="#8A9400"/>
<path d="M83.8801 94.2C83.4401 94.2 83.06 93.9 82.96 93.47L82.25 90.33C82.19 90.09 82.24 89.8299 82.37 89.6199C82.5 89.4099 82.71 89.26 82.96 89.21L83.99 88.9799C83.99 88.9799 84.1601 88.96 84.2001 88.96C84.6401 88.96 85.02 89.26 85.12 89.69L85.83 92.83C85.89 93.07 85.84 93.3299 85.71 93.5399C85.58 93.7499 85.37 93.9 85.12 93.95L84.09 94.1799C84.09 94.1799 83.9301 94.2 83.8801 94.2Z" fill="white"/>
<path d="M84.2 89.53C84.37 89.53 84.5199 89.65 84.5599 89.82L85.2699 92.96C85.3099 93.16 85.1899 93.36 84.9899 93.4L83.9599 93.63C83.9599 93.63 83.9099 93.63 83.8799 93.63C83.7099 93.63 83.5599 93.51 83.5199 93.34L82.8099 90.2C82.7699 90 82.8899 89.8 83.0899 89.76L84.1199 89.53C84.1199 89.53 84.17 89.53 84.2 89.53ZM84.2 88.39C84.09 88.39 83.9799 88.4 83.8699 88.43L82.8399 88.66C82.0299 88.84 81.52 89.65 81.7 90.46L82.4099 93.6C82.5699 94.29 83.1699 94.78 83.8799 94.78C83.9899 94.78 84.0999 94.77 84.2099 94.74L85.2399 94.51C86.0499 94.33 86.5599 93.52 86.3799 92.71L85.67 89.57C85.51 88.88 84.91 88.39 84.2 88.39Z" fill="#8A9400"/>
<path d="M68 98.0701C68 98.0701 78.44 102.44 86.22 101.62C88.1 101.42 93.45 98.8001 93.45 98.8001" stroke="#BF5E00" stroke-width="1.14" stroke-linecap="square" stroke-linejoin="round"/>
<path d="M30.9399 96.6899C32.5199 98.0799 33.3799 99.4599 35.6299 100.75C40.4799 101.11 46.6599 100.44 50.9099 98.0799" stroke="#BF5E00" stroke-width="1.14" stroke-linecap="square" stroke-linejoin="round"/>
<path d="M49.29 109.79L52.37 114.22" stroke="#7F0003" stroke-width="1.14" stroke-linecap="square" stroke-linejoin="round"/>
<path opacity="0.97" d="M32.6001 66.89C20.4101 50.8 16.4001 28.81 22.0201 9.32996C23.3301 24 32.5301 37.74 45.6001 44.53" stroke="#7F0003" stroke-width="1.9" stroke-miterlimit="10"/>
<path opacity="0.97" d="M75.98 60.77C65.44 44.27 62.07 23.36 65.99 4.79004C71.11 27.29 85.45 47.55 103.87 61.42V64.46" stroke="#7F0003" stroke-width="1.9" stroke-miterlimit="10"/>
<path opacity="0.97" d="M72.8001 56.68C75.2501 62.32 76.8101 68.45 81.8801 71.79C73.2301 74.04 63.4301 71.05 57.5201 64.35C57.5801 68.18 57.6501 72.02 57.7101 75.85C49.3001 73.77 44.2801 63.12 48.0301 55.31C45.1601 56.65 42.2901 58 39.4201 59.34C42.1401 54.3 44.8501 49.25 48.2601 44.94C44.0201 45.02 39.8501 42.4 38.0701 38.55C47.0601 36.76 56.1301 35.4 65.2501 34.46C67.6401 42.24 69.9301 50.04 72.8101 56.67L72.8001 56.68Z" fill="#E74C1B" stroke="#7F0003" stroke-width="1.9" stroke-miterlimit="10"/>
<path d="M103.03 60.62C108.24 82.28 99.7899 106.62 82.2799 120.4C91.7799 119.67 100.94 115.27 107.46 108.33C106.49 112.94 105.51 117.55 104.54 122.16C109.62 116.9 114.69 111.64 118.26 107.35C130.01 94.3 132.52 73.75 124.26 58.26C116 42.77 97.5299 33.41 80.1499 35.9L103.04 60.63L103.03 60.62Z" fill="#FFF7D4" stroke="#7F0003" stroke-width="1.9" stroke-miterlimit="10"/>
</svg>
